<svg width="462" height="400" viewBox="0 0 462 740" fill="none" xmlns="http://www.w3.org/2000/svg">
    <path opacity="0.32"
        d="M268.377 126.056C147.321 183.844 96.6681 330.159 155.241 452.861C213.814 575.562 359.432 628.185 480.488 570.398C601.544 512.61 652.197 366.295 593.624 243.593C535.051 120.892 389.433 68.2688 268.377 126.056Z"
        fill="#0D3653" fill-opacity="0.1" />
    <path opacity="0.32" d="M268.832 594.852C294.93 605.629 322.501 612.227 350.538 614.404" stroke="#0D324D"
        stroke-opacity="0.1" stroke-width="3.06" stroke-linecap="round" stroke-linejoin="round" />
    <path opacity="0.32"
        d="M100.499 367.094C104.006 403.719 114.858 439.32 132.395 471.73C149.931 504.14 173.786 532.682 202.508 555.619"
        stroke="#0D324D" stroke-opacity="0.1" stroke-width="3.06" stroke-linecap="round" stroke-linejoin="round" />
    <path opacity="0.32" d="M100.774 296.211C105.85 261.931 117.418 229.022 134.848 199.273" stroke="#0D324D"
        stroke-opacity="0.1" stroke-width="3.06" stroke-linecap="round" stroke-linejoin="round" />
    <path opacity="0.32" d="M75.1573 370.17C74.3521 362.03 73.8476 353.875 73.6437 345.704" stroke="#0D324D"
        stroke-opacity="0.1" stroke-width="3.06" stroke-linecap="round" stroke-linejoin="round" />
    <path opacity="0.32" d="M95.597 453.122C86.6646 430.946 80.3787 407.802 76.8726 384.18" stroke="#0D324D"
        stroke-opacity="0.1" stroke-width="3.06" stroke-linecap="round" stroke-linejoin="round" />
    <path opacity="0.32" d="M115.429 493.369C110.734 485.393 106.427 477.235 102.508 468.895" stroke="#0D324D"
        stroke-opacity="0.1" stroke-width="3.06" stroke-linecap="round" stroke-linejoin="round" />
    <path opacity="0.32" d="M202.904 587.813C172.166 566.437 145.65 539.436 124.751 508.233" stroke="#0D324D"
        stroke-opacity="0.1" stroke-width="3.06" stroke-linecap="round" stroke-linejoin="round" />
    <path opacity="0.32" d="M304.121 633.348C285.825 628.989 267.967 622.874 250.794 615.087" stroke="#0D324D"
        stroke-opacity="0.1" stroke-width="3.06" stroke-linecap="round" stroke-linejoin="round" />
    <path opacity="0.32" d="M370.409 641.338C353.455 641.237 336.526 639.662 319.81 636.631" stroke="#0D324D"
        stroke-opacity="0.1" stroke-width="3.06" stroke-linecap="round" stroke-linejoin="round" />
    <path opacity="0.32" d="M487.451 617.784C476.854 622.312 465.998 626.209 454.937 629.455" stroke="#0D324D"
        stroke-opacity="0.1" stroke-width="3.06" stroke-linecap="round" stroke-linejoin="round" />
    <path opacity="0.32" d="M418.206 650.839L415.58 645.339" stroke="#0D324D" stroke-opacity="0.1" stroke-width="3.06"
        stroke-linecap="round" stroke-linejoin="round" />
    <path opacity="0.32" d="M411.513 636.817L408.887 631.317" stroke="#0D324D" stroke-opacity="0.1" stroke-width="3.06"
        stroke-linecap="round" stroke-linejoin="round" />
    <path opacity="0.32" d="M403.91 645.673L409.337 643.083" stroke="#0D324D" stroke-opacity="0.1" stroke-width="3.06"
        stroke-linecap="round" stroke-linejoin="round" />
    <path opacity="0.32" d="M417.752 639.066L423.179 636.475" stroke="#0D324D" stroke-opacity="0.1" stroke-width="3.06"
        stroke-linecap="round" stroke-linejoin="round" />
    <path opacity="0.32" d="M228.313 617.575L225.684 612.067" stroke="#0D324D" stroke-opacity="0.1" stroke-width="3.06"
        stroke-linecap="round" stroke-linejoin="round" />
    <path opacity="0.32" d="M221.616 603.545L218.99 598.045" stroke="#0D324D" stroke-opacity="0.1" stroke-width="3.06"
        stroke-linecap="round" stroke-linejoin="round" />
    <path opacity="0.32" d="M214.018 612.409L219.444 609.818" stroke="#0D324D" stroke-opacity="0.1" stroke-width="3.06"
        stroke-linecap="round" stroke-linejoin="round" />
    <path opacity="0.32" d="M227.859 605.802L233.285 603.211" stroke="#0D324D" stroke-opacity="0.1" stroke-width="3.06"
        stroke-linecap="round" stroke-linejoin="round" />
    <path opacity="0.32" d="M101.354 337.656L98.7288 332.156" stroke="#0D324D" stroke-opacity="0.1" stroke-width="3.06"
        stroke-linecap="round" stroke-linejoin="round" />
    <path opacity="0.32" d="M94.6602 323.634L92.0344 318.134" stroke="#0D324D" stroke-opacity="0.1" stroke-width="3.06"
        stroke-linecap="round" stroke-linejoin="round" />
    <path opacity="0.32" d="M87.0625 332.498L92.4893 329.907" stroke="#0D324D" stroke-opacity="0.1" stroke-width="3.06"
        stroke-linecap="round" stroke-linejoin="round" />
    <path opacity="0.32" d="M100.896 325.894L106.322 323.304" stroke="#0D324D" stroke-opacity="0.1" stroke-width="3.06"
        stroke-linecap="round" stroke-linejoin="round" />
</svg>