<svg width="44" height="39" viewBox="0 0 44 39" xmlns="http://www.w3.org/2000/svg">
    <g fill="#637282" fill-rule="evenodd" opacity=".5">
        <path
            d="M18.52 36.257c-.53-.08-1.062-.13-1.448-.097-.637.06-1.304.35-1.847.723-.526.38-.96.826-1.128 1.218.97.35 2.35.57 3.47.562 1.025.008 2.167-.858 2.59-1.822.193-.437.543-.387.33-.864-.28-.628-.67-1.434-1.073-1.963-.86-1.097-2.705-2.08-3.595-2.43.404.77.843 1.726 1.495 2.702.242.36.603.726 1.026 1.063.5.4.818.57 1.363.88l.613.345-.518-.086c-.426-.07-.85-.165-1.277-.23M11.228 33.696c-.483-.302-.984-.574-1.372-.705-.646-.21-1.416-.207-2.098-.073-.67.15-1.277.4-1.6.712.802.75 2.054 1.544 3.15 2.008.997.44 2.465.077 3.276-.685.366-.344.687-.148.676-.703-.014-.73-.063-1.68-.24-2.365-.386-1.432-1.782-3.168-2.503-3.885.076.923.112 2.04.346 3.265.087.453.29.962.562 1.468.324.6.562.9.968 1.432l.455.594-.47-.302c-.387-.25-.76-.518-1.15-.762M5.458 27.773c-.334-.418-.693-.815-.996-1.053-.506-.39-1.187-.628-1.83-.724-.638-.08-1.25-.047-1.632.127.478.914 1.34 2.01 2.167 2.763.746.702 2.155.842 3.104.424.43-.19.653.084.814-.41.21-.648.458-1.502.512-2.164.098-1.385-.603-3.358-1.02-4.217-.217.838-.527 1.835-.695 2.992-.06.427-.04.94.048 1.473.102.632.22.973.416 1.57l.22.667-.323-.414c-.264-.342-.512-.697-.782-1.035M2.894 18.882c-.06-.53-.153-1.057-.283-1.42-.22-.598-.664-1.165-1.154-1.59C.962 15.46.432 15.157.02 15.1c-.078 1.024.07 2.407.368 3.484.258.99 1.366 1.865 2.38 2.024.46.072.504.422.897.095.52-.432 1.174-1.015 1.567-1.54.81-1.11 1.256-3.142 1.356-4.088-.62.59-1.404 1.258-2.152 2.137-.277.325-.527.768-.735 1.262-.244.585-.324.933-.473 1.54l-.166.677-.052-.52c-.044-.428-.065-.86-.114-1.288M4.055 9.55c.204-.472.378-.954.445-1.32.103-.603.005-1.292-.198-1.886-.214-.58-.51-1.094-.822-1.344-.555.812-1.093 2.033-1.362 3.073-.26.947.24 2.217 1.007 2.847.347.285.216.597.7.518.636-.104 1.458-.267 2.036-.51 1.204-.525 2.547-1.99 3.083-2.727-.797.184-1.767.355-2.81.72-.385.133-.804.377-1.213.685-.483.365-.717.616-1.13 1.045l-.462.482.205-.458c.17-.377.358-.745.522-1.125M9.824 3.723c.346-.26.676-.543.876-.785.327-.403.54-.955.636-1.48.083-.522.077-1.026-.05-1.344-.748.364-1.652 1.04-2.282 1.694-.586.59-.74 1.743-.436 2.535.138.358-.088.533.302.68.514.194 1.19.423 1.72.488 1.106.125 2.708-.39 3.41-.707-.665-.203-1.455-.488-2.376-.663-.34-.064-.752-.06-1.183-.007-.508.065-.784.15-1.268.293l-.542.16.342-.252c.28-.208.573-.4.852-.61" />
        <g>
            <path
                d="M25.48 36.257c.53-.08 1.062-.13 1.448-.097.637.06 1.304.35 1.847.723.526.38.96.826 1.128 1.218-.97.35-2.35.57-3.47.562-1.025.008-2.167-.858-2.59-1.822-.193-.437-.543-.387-.33-.864.28-.628.67-1.434 1.073-1.963.86-1.097 2.705-2.08 3.595-2.43-.404.77-.843 1.726-1.495 2.702-.242.36-.603.726-1.026 1.063-.5.4-.818.57-1.363.88l-.613.345.518-.086c.426-.07.85-.165 1.277-.23M32.772 33.696c.483-.302.984-.574 1.372-.705.646-.21 1.416-.207 2.098-.073.67.15 1.277.4 1.6.712-.802.75-2.054 1.544-3.15 2.008-.997.44-2.465.077-3.276-.685-.366-.344-.687-.148-.676-.703.014-.73.063-1.68.24-2.365.386-1.432 1.782-3.168 2.503-3.885-.076.923-.112 2.04-.346 3.265-.087.453-.29.962-.562 1.468-.324.6-.562.9-.968 1.432l-.455.594.47-.302c.387-.25.76-.518 1.15-.762M38.542 27.773c.334-.418.693-.815.996-1.053.506-.39 1.187-.628 1.83-.724.638-.08 1.25-.047 1.632.127-.478.914-1.34 2.01-2.167 2.763-.746.702-2.155.842-3.104.424-.43-.19-.653.084-.814-.41-.21-.648-.458-1.502-.512-2.164-.098-1.385.603-3.358 1.02-4.217.217.838.527 1.835.695 2.992.06.427.04.94-.048 1.473-.102.632-.22.973-.416 1.57l-.22.667.323-.414c.264-.342.512-.697.782-1.035M41.106 18.882c.06-.53.153-1.057.283-1.42.22-.598.664-1.165 1.154-1.59.494-.41 1.024-.714 1.435-.772.078 1.024-.07 2.407-.368 3.484-.258.99-1.366 1.865-2.38 2.024-.46.072-.504.422-.897.095-.52-.432-1.174-1.015-1.567-1.54-.81-1.11-1.256-3.142-1.356-4.088.62.59 1.404 1.258 2.152 2.137.277.325.527.768.735 1.262.244.585.324.933.473 1.54l.166.677.052-.52c.044-.428.065-.86.114-1.288M39.945 9.55c-.204-.472-.378-.954-.445-1.32-.103-.603-.005-1.292.198-1.886.214-.58.51-1.094.822-1.344.555.812 1.093 2.033 1.362 3.073.26.947-.24 2.217-1.007 2.847-.347.285-.216.597-.7.518-.636-.104-1.458-.267-2.036-.51-1.204-.525-2.547-1.99-3.083-2.727.797.184 1.767.355 2.81.72.385.133.804.377 1.213.685.483.365.717.616 1.13 1.045l.462.482-.205-.458c-.17-.377-.358-.745-.522-1.125M34.176 3.723c-.346-.26-.676-.543-.876-.785-.327-.403-.54-.955-.636-1.48-.083-.522-.077-1.026.05-1.344.748.364 1.652 1.04 2.282 1.694.586.59.74 1.743.436 2.535-.138.358.088.533-.302.68-.514.194-1.19.423-1.72.488-1.106.125-2.708-.39-3.41-.707.665-.203 1.455-.488 2.376-.663.34-.064.752-.06 1.183-.007.508.065.784.15 1.268.293l.542.16-.342-.252c-.28-.208-.573-.4-.852-.61" />
        </g>
    </g>
</svg>