<svg width="49" height="18" viewBox="0 0 49 18" fill="none" xmlns="http://www.w3.org/2000/svg">
<path d="M3.33333 12.6667H4.276L10.4853 6.45734L9.54267 5.51468L3.33333 11.724V12.6667ZM14 14H2V11.1713L10.9567 2.21468C11.0817 2.0897 11.2512 2.01949 11.428 2.01949C11.6048 2.01949 11.7743 2.0897 11.8993 2.21468L13.7853 4.10068C13.9103 4.2257 13.9805 4.39523 13.9805 4.57201C13.9805 4.74879 13.9103 4.91833 13.7853 5.04334L6.162 12.6667H14V14ZM10.4853 4.57201L11.428 5.51468L12.3707 4.57201L11.428 3.62934L10.4853 4.57201Z" fill="black"/>
<path d="M31.294 14V12.726H26.632V9.688H30.86V8.4H26.632V5.348H31.294V4.074H25.26V14H31.294ZM33.7653 10.612C33.7653 9.226 34.5493 8.246 35.7533 8.246C36.9573 8.246 37.6853 9.198 37.6853 10.584C37.6853 11.97 36.9433 13.02 35.7393 13.02C34.4793 13.02 33.7653 11.998 33.7653 10.612ZM37.6993 13.09C37.6993 13.496 37.7413 13.846 37.7693 14H39.0433C39.0293 13.888 38.9733 13.398 38.9733 12.754V3.864H37.6713V8.218C37.4473 7.672 36.8033 7.084 35.6133 7.084C33.7093 7.084 32.4213 8.708 32.4213 10.612C32.4213 12.614 33.6393 14.182 35.6133 14.182C36.6633 14.182 37.3773 13.622 37.6993 12.978V13.09ZM42.5138 14V7.266H41.2118V14H42.5138ZM40.9178 4.718C40.9178 5.236 41.3378 5.656 41.8558 5.656C42.3878 5.656 42.8078 5.236 42.8078 4.718C42.8078 4.186 42.3878 3.766 41.8558 3.766C41.3378 3.766 40.9178 4.186 40.9178 4.718ZM46.5168 5.138H45.3128V6.23C45.3128 6.818 45.0048 7.266 44.2768 7.266H43.9128V8.456H45.2008V12.152C45.2008 13.37 45.9288 14.07 47.0768 14.07C47.5248 14.07 47.8608 13.986 47.9728 13.944V12.824C47.8608 12.852 47.6228 12.88 47.4548 12.88C46.7688 12.88 46.5168 12.572 46.5168 11.956V8.456H47.9728V7.266H46.5168V5.138Z" fill="black"/>
</svg>
